<svg width="657" height="162" viewBox="0 0 657 162" fill="none" xmlns="http://www.w3.org/2000/svg">
<path fill-rule="evenodd" clip-rule="evenodd" d="M482 2.08198C467.084 5.96498 446 18.448 446 23.396C446 25.948 453.745 34.019 456.193 34.019C457.083 34.019 459.743 32.404 462.106 30.431C467.698 25.758 478.033 20.595 486.087 18.45C493.809 16.393 508.315 16.162 516 17.973C523.839 19.82 535.276 25.272 541.19 29.982C543.979 32.202 546.973 34.019 547.843 34.019C550.264 34.019 558 25.928 558 23.396C558 18.352 536.751 5.88198 521.59 2.02898C510.861 -0.697023 492.582 -0.673024 482 2.08198ZM6 10.672C2.149 12.216 0 15.391 0 19.538C0 25.783 5.234 29.372 12.734 28.271C24.203 26.588 23.551 11.42 11.967 10.447C9.51 10.24 6.825 10.342 6 10.672ZM48 67.519V125.019H56.097H64.194L63.847 77.019C63.656 50.619 63.574 29.019 63.664 29.019C63.754 29.019 65.412 31.832 67.348 35.269C72.419 44.271 81.566 57.489 107.537 93.341L130.484 125.019H139.242H148V67.519V10.019H140H132L132.08 48.769C132.123 70.082 132.496 91.344 132.908 96.019C133.32 100.694 133.561 104.655 133.443 104.821C133.326 104.987 131.642 102.287 129.701 98.821C123.905 88.471 114.281 74.583 89.944 41.442L66.867 10.019H57.433H48V67.519ZM204.176 41.089C188.978 44.08 177.081 55.456 172.48 71.399C169.893 80.359 170.721 95.673 174.197 103.194C179.739 115.182 191.468 123.565 206.18 126.052C215.205 127.578 231.744 126.752 241.5 124.287C248.417 122.54 248.497 122.482 248.258 119.355C248.125 117.614 247.601 115.099 247.094 113.765L246.171 111.34L239.336 113.122C229.154 115.776 212.798 115.657 205.288 112.875C197.328 109.926 190.752 103.306 188.611 96.087C185.649 86.102 182.431 87.019 220.421 87.019H253.841L254.523 83.915C256.119 76.649 252.891 63.44 247.555 55.405C239.428 43.164 222.32 37.518 204.176 41.089ZM418.324 41.634C413.121 43.506 405.523 50.092 403.086 54.842L401.245 58.432L400.518 50.225L399.792 42.019H392.251H384.711L385.348 48.769C385.699 52.482 385.989 71.156 385.993 90.269L386 125.019H394.5H403V100.701C403 73.594 403.697 69.234 409.068 62.74C413.617 57.24 419.21 54.666 426.783 54.585L433.066 54.519L432.783 47.519L432.5 40.519L427.5 40.325C424.75 40.218 420.621 40.807 418.324 41.634ZM489.575 41.614C478.794 45.046 469.499 53.247 464.222 63.982C461.738 69.035 461.5 70.525 461.5 81.019C461.5 91.513 461.738 93.003 464.222 98.056C472.131 114.146 486.707 122.758 504.454 121.826C519.773 121.022 531.939 112.992 538.765 99.179C542.368 91.889 542.5 91.249 542.5 81.019C542.5 70.789 542.368 70.149 538.765 62.859C534.257 53.736 528.448 48.06 519.18 43.72C513.501 41.062 511.151 40.552 503.5 40.319C497.407 40.134 492.909 40.552 489.575 41.614ZM612.746 41.105C606.737 42.521 599.246 46.763 594.966 51.174L591 55.26V51.765C591 49.842 590.719 46.863 590.375 45.144L589.75 42.019H582.221H574.691L575.342 54.769C575.699 61.782 575.994 80.457 575.996 96.269L576 125.019H584.5H593L593.022 97.769C593.047 67.017 593.355 65.426 600.52 59.135C605.655 54.627 610.326 52.816 616.977 52.753C624.244 52.685 628.942 54.331 632.771 58.288C639.044 64.769 639.385 66.661 639.806 97.269L640.187 125.019H648.593H657V97.229C657 67.216 656.295 61.577 651.632 54.269C647.496 47.786 642.345 44.09 633.991 41.609C628.234 39.899 618.81 39.676 612.746 41.105ZM2 83.519V125.019H10.5H19V83.519V42.019H10.5H2V83.519ZM276.223 72.269C276.608 105.004 276.892 106.908 282.622 115.19C293.151 130.405 322.019 130.868 336.75 116.057L341 111.784V115.276C341 117.197 341.281 120.175 341.625 121.894L342.25 125.019H349.779H357.309L356.658 112.269C356.301 105.256 356.006 86.582 356.004 70.769L356 42.019H347.5H339L338.978 69.269C338.958 93.682 338.763 96.935 337.1 100.519C333.098 109.145 324.671 114.26 314.455 114.266C302.475 114.272 295.998 107.992 294.045 94.474C293.492 90.649 293.031 77.282 293.02 64.769L293 42.019H284.434H275.868L276.223 72.269ZM440.194 50.286C439.616 50.982 437.89 55.145 436.358 59.536C433.845 66.744 433.574 68.83 433.574 81.019C433.574 93.187 433.848 95.308 436.349 102.519C439.862 112.647 440.847 113.739 444.934 112.046C446.62 111.348 448 110.165 448 109.419C448 108.672 446.786 104.564 445.302 100.29C442.979 93.597 442.605 90.923 442.605 81.019C442.605 71.115 442.979 68.441 445.302 61.748C448.618 52.196 448.626 51.625 445.453 50.18C442.225 48.709 441.49 48.723 440.194 50.286ZM557.75 50.411C555.447 52.159 555.518 53.017 558.701 61.944C561.039 68.503 561.402 71.061 561.402 81.019C561.402 90.977 561.039 93.535 558.701 100.094C557.215 104.261 556 108.261 556 108.984C556 110.687 558.995 112.946 561.305 112.987C565.248 113.057 571 94.09 571 81.019C571 67.948 565.248 48.981 561.305 49.051C560.312 49.068 558.712 49.68 557.75 50.411ZM223.782 52.572C231.133 55.643 236.48 62.943 237.655 71.516L238.272 76.019H212.617H186.962L187.608 73.269C189.681 64.454 196.583 55.842 204.242 52.513C208.612 50.614 219.171 50.646 223.782 52.572ZM450.208 132.307C447.894 134.665 446 137.552 446 138.722C446 143.785 467.501 156.245 482.95 160.135C494.289 162.99 514.756 162.455 525.5 159.024C539.831 154.447 558 143.097 558 138.722C558 136.195 550.302 128.019 547.922 128.019C547.009 128.019 543.979 129.836 541.19 132.056C535.275 136.767 523.838 142.218 516 144.064C508.43 145.847 493.843 145.603 486.087 143.565C478.065 141.457 467.722 136.3 462.106 131.607C459.743 129.634 457.047 128.019 456.114 128.019C455.18 128.019 452.523 129.949 450.208 132.307Z" fill="url(#paint0_linear_2_4)"/>
<defs>
<linearGradient id="paint0_linear_2_4" x1="0" y1="80.9885" x2="657" y2="80.9885" gradientUnits="userSpaceOnUse">
<stop stop-color="#FF512F"/>
<stop offset="1" stop-color="#F09819"/>
</linearGradient>
</defs>
</svg>
